# xmcd
#
# Track frame offsets: 
#        150
#        26805
#        45938
#        60226
#        80852
#        106200
#        133225
#        152485
#        180282
#        200429
#        224386
#        255426
#        274463
#        307415
#
# Disc length: 4679 seconds
#
# Revision: 0
# Processed by: cddbd v1.5.2PL0 Copyright (c) Steve Scherf et al.
# Submitted via: ExactAudioCopyFreeDBPlugin 1.0
#
DISCID=c512450e
DTITLE=Osiris - The Best Of Osiris
DYEAR=2007
DGENRE=Funk
TTITLE0=1 Gritt On It 
TTITLE1=2 Speedball 
TTITLE2=3 Consistency 
TTITLE3=4 The Tower
TTITLE4=5 Say You Will
TTITLE5=6 Gamin
TTITLE6=7 Travelin' Salesman
TTITLE7=8 Fun 
TTITLE8=9 My Love 
TTITLE9=10 The Lady Wore Black 
TTITLE10=11 Fantality
TTITLE11=12 The Nile (Total Devastation) 
TTITLE12=13  Damn 
TTITLE13=14  War (On The Bullshit) 
EXTD=
EXTT0=
EXTT1=
EXTT2=
EXTT3=
EXTT4=
EXTT5=
EXTT6=
EXTT7=
EXTT8=
EXTT9=
EXTT10=
EXTT11=
EXTT12=
EXTT13=
PLAYORDER=
